<?xml version="1.0" standalone="no"?>
<svg viewBox="0 0 200 200" xmlns="http://www.w3.org/2000/svg">
  <path fill="#24A148" d="M36.2,-51.2C48.1,-41.1,59.8,-32.2,62,-21.2C64.1,-10.1,56.7,2.9,50.1,14.1C43.4,25.2,37.5,34.4,29.3,47.2C21.1,60,10.5,76.4,-0.4,76.9C-11.3,77.4,-22.6,62,-33.1,50C-43.7,37.9,-53.6,29.3,-57.7,18.3C-61.8,7.4,-60.2,-5.8,-58.7,-21.8C-57.3,-37.9,-56.1,-56.7,-46.4,-67.5C-36.6,-78.3,-18.3,-81.1,-3.1,-76.8C12.1,-72.6,24.3,-61.3,36.2,-51.2Z" transform="translate(100 100)" />
</svg>
